<?xml version="1.0" encoding="UTF-8"?>
<svg xmlns="http://www.w3.org/2000/svg" xmlns:xlink="http://www.w3.org/1999/xlink" width="236.051" height="68.478" viewBox="0 0 236.051 68.478">
  <defs>
    <clipPath id="clip-path">
      <rect id="Rectangle_14" data-name="Rectangle 14" width="236.051" height="68.478" transform="translate(0 0)" fill="none"></rect>
    </clipPath>
  </defs>
  <g id="Group_10" data-name="Group 10" transform="translate(0 0)">
    <g id="Group_9" data-name="Group 9" clip-path="url(#clip-path)">
      <path id="Path_3" data-name="Path 3" d="M0,30.58A30.58,30.58,0,0,1,30.58,0V30.58Z" fill="#96ff75"></path>
      <path id="Path_4" data-name="Path 4" d="M30.58,63.606A30.58,30.58,0,0,1,0,33.026H30.58Z" fill="#96ff75"></path>
      <path id="Path_5" data-name="Path 5" d="M63.606,63.606a30.545,30.545,0,0,1-30.335-30.58H63.606Z" fill="#96ff75"></path>
      <path id="Path_6" data-name="Path 6" d="M63.6,30.571c-.247.006-.5.009-.745.009C46.518,30.58,33.271,17,33.271.255c0-.082,0-.163,0-.245.247-.006.495-.01.744-.01,16.342,0,29.59,13.577,29.59,30.326,0,.081,0,.163,0,.245" fill="#96ff75" fill-rule="evenodd"></path>
      <path id="Path_7" data-name="Path 7" d="M0,30.58A30.58,30.58,0,0,1,30.58,0V30.58Z" fill="#a3e063"></path>
      <path id="Path_8" data-name="Path 8" d="M30.58,63.606A30.58,30.58,0,0,1,0,33.026H30.58Z" fill="#a3e063"></path>
      <path id="Path_9" data-name="Path 9" d="M63.606,63.606a30.545,30.545,0,0,1-30.335-30.58H63.606Z" fill="#a3e063"></path>
      <path id="Path_10" data-name="Path 10" d="M63.6,30.571c-.247.006-.5.009-.745.009C46.518,30.58,33.271,17,33.271.255c0-.082,0-.163,0-.245.247-.006.495-.01.744-.01,16.342,0,29.59,13.577,29.59,30.326,0,.081,0,.163,0,.245" fill="#a3e063" fill-rule="evenodd"></path>
      <path id="Path_11" data-name="Path 11" d="M97.293,3.115c5.411,0,9.74,3.031,10.822,8.081h-3.572c-.865-2.922-3.246-4.978-7.431-4.978-4.617,0-8.225,3.607-8.225,10.389,0,6.638,3.427,10.5,8.225,10.5,3.463,0,7.72-1.442,7.72-6.853v-.686H97.906V16.391h10.389V29.738h-2.886l-.18-3.283c-1.7,2.706-4.762,3.752-8.261,3.752-7.5,0-11.832-5.664-11.832-13.6,0-8.081,4.8-13.492,12.157-13.492M122.6,10.258v3.5a11.756,11.756,0,0,0-1.84-.144c-3.03,0-4.545,1.659-4.545,5.952V29.738h-3.283V10.33h3.21v3.391a5.877,5.877,0,0,1,5.484-3.5,9.49,9.49,0,0,1,.974.036m19.216,10.858H126.882a5.962,5.962,0,0,0,5.988,6.2c2.886,0,4.473-1.3,5.3-3.211h3.391c-.866,3.319-3.968,6.1-8.694,6.1-6.133,0-9.523-4.4-9.523-10.137,0-6.169,4.112-10.065,9.415-10.065,5.952,0,9.451,4.943,9.054,11.111m-9.054-8.3a5.484,5.484,0,0,0-5.844,5.484h11.435a5.524,5.524,0,0,0-5.591-5.484m29.47,8.3H147.3a5.963,5.963,0,0,0,5.989,6.2c2.886,0,4.473-1.3,5.3-3.211h3.39c-.865,3.319-3.968,6.1-8.693,6.1-6.133,0-9.524-4.4-9.524-10.137,0-6.169,4.113-10.065,9.416-10.065,5.952,0,9.451,4.943,9.054,11.111m-9.054-8.3a5.485,5.485,0,0,0-5.845,5.484h11.436a5.524,5.524,0,0,0-5.591-5.484m15.441-2.489v2.922a6.755,6.755,0,0,1,6.277-3.247c4.69,0,6.385,3.031,6.385,7.468V29.738H178V18.447c0-2.994-.505-5.592-4.256-5.592-3.175,0-5.123,2.165-5.123,6.349V29.738h-3.283V10.33Zm-79.587,42.2c0,5.122,2.741,7.287,5.663,7.287,3.355,0,5.556-2.634,5.556-7.287s-2.2-7.287-5.556-7.287c-2.922,0-5.663,2.164-5.663,7.287M85.893,36.011h3.283v9.812a6.8,6.8,0,0,1,6.349-3.391c4.473,0,8.3,3.752,8.3,10.1,0,6.457-3.824,10.1-8.3,10.1a6.8,6.8,0,0,1-6.349-3.391v2.922H85.893Zm31.378,6.746H120.7l-6.926,20.237c-1.443,4.185-2.381,5.484-6.746,5.484h-1.695V65.736h1.334c2.165,0,3.211-.144,4.077-3.174l.144-.4-7-19.408h3.643l4.942,14.971Zm34.672,19.408h-5.375l-11.977-22.33v22.33h-3.679V36.011h5.411l11.94,22.258V36.011h3.68Zm17.2-8.117V52.821c-5.952.578-9.74,1.48-9.74,4.149,0,1.84,1.407,3.066,3.752,3.066,3.066,0,5.988-1.407,5.988-5.988m-6.71,8.586c-3.643,0-6.674-2.02-6.674-5.592,0-4.581,5.2-5.952,13.131-6.818v-.469c0-3.571-1.948-4.726-4.4-4.726-2.741,0-4.293,1.443-4.437,3.86h-3.391c.289-4.184,4.041-6.529,7.792-6.529,5.375,0,7.756,2.525,7.72,8.009l-.036,4.473a33.216,33.216,0,0,0,.505,7.323h-3.319a21.075,21.075,0,0,1-.252-2.67c-1.191,2.02-3.175,3.139-6.638,3.139m14.848-19.877v-4.87h3.283v4.87h3.679V45.39h-3.679V56.9c0,2.02.144,2.525,2.02,2.525h1.659v2.742h-2.381c-3.715,0-4.581-.83-4.581-4.87V45.39h-3.066V42.757Zm22.084,19.408V59.387a6.528,6.528,0,0,1-6.1,3.247c-4.474,0-6.206-3.031-6.206-7.468V42.757h3.283V54.192c0,2.994.469,5.592,4.077,5.592,3.138,0,4.941-2.165,4.941-6.349V42.757h3.283V62.165ZM216.8,42.685v3.5a11.759,11.759,0,0,0-1.84-.145c-3.03,0-4.545,1.66-4.545,5.953V62.165h-3.283V42.757h3.21v3.391a5.876,5.876,0,0,1,5.483-3.5,9.5,9.5,0,0,1,.975.036m19.216,10.858H221.086a5.965,5.965,0,0,0,5.989,6.205c2.886,0,4.474-1.3,5.3-3.211h3.391c-.867,3.319-3.968,6.1-8.7,6.1-6.132,0-9.523-4.4-9.523-10.137,0-6.169,4.111-10.065,9.415-10.065,5.952,0,9.451,4.942,9.054,11.111m-9.054-8.3a5.485,5.485,0,0,0-5.844,5.483h11.435a5.524,5.524,0,0,0-5.591-5.483" fill="#fff"></path>
    </g>
  </g>
</svg>
