<?xml version="1.0" encoding="UTF-8"?>
<svg xmlns="http://www.w3.org/2000/svg" width="159" height="80" viewBox="0 0 159 80" fill="none">
  <g id="Logo">
    <path id="Vector" d="M7.33117 78.5391H0.634766V78.5073C1.2695 78.2533 1.39644 77.7451 1.39644 76.8877V71.1393C1.39644 70.2819 1.2695 69.7737 0.634766 69.5197V69.4879H3.33237V69.5197C2.69764 69.7737 2.57069 70.2819 2.57069 71.1393V78.1898H4.69704C6.18866 78.1898 7.04554 77.3958 7.74375 76.0302H7.77548L7.33117 78.5391ZM30.3402 78.5391C30.721 78.3486 30.9431 78.1262 30.9431 77.8404C30.9431 77.6181 30.8479 77.364 30.721 77.0782L30.0228 75.5538H26.0557L25.5162 76.7924C25.3893 77.0782 25.294 77.364 25.294 77.6816C25.294 78.0627 25.5479 78.3803 25.9288 78.5391V78.5709H23.8342V78.5391C24.3419 78.285 24.6911 77.6816 25.0719 76.8241L28.3725 69.3926H28.4042L31.9905 77.1417C32.3713 77.9674 32.53 78.3168 33.0695 78.5709V78.6026H30.3402V78.5391ZM27.9916 71.0758L26.2144 75.1727H29.8641L27.9916 71.0758ZM59.6012 71.0441L56.7449 78.6661H56.7132L54.5234 72.6002L52.2384 78.6661H52.2066L49.2234 70.917C48.906 70.0913 48.6839 69.742 48.2713 69.4879V69.4561H50.8737V69.4879C50.5563 69.6467 50.3342 69.869 50.3342 70.1866C50.3342 70.4089 50.3976 70.663 50.5246 70.9488L52.6827 76.6336L54.3964 72.0286L53.9839 70.917C53.6665 70.0913 53.4443 69.742 53.0318 69.4879V69.4561H55.6024V69.4879C55.2851 69.6467 55.0629 69.869 55.0629 70.1866C55.0629 70.4089 55.1264 70.663 55.2533 70.9488L57.221 76.6653L59.2521 71.2029C59.3156 70.9805 59.3791 70.7582 59.3791 70.5677C59.3791 70.1231 59.1569 69.742 58.7443 69.5197V69.4879H60.8072V69.5197C60.236 69.742 59.9186 70.2819 59.6012 71.0441ZM83.7845 70.8535L81.309 74.7598V76.9829C81.309 77.8404 81.4994 78.2533 82.1342 78.5073V78.5391H79.3413V78.5073C79.9761 78.2533 80.1665 77.8404 80.1665 76.9829V74.7598L77.5958 70.7265C77.2467 70.1548 76.9611 69.8372 76.4216 69.4879V69.4561H79.2144V69.4879C78.9288 69.6467 78.7384 69.8372 78.7384 70.1866C78.7384 70.3454 78.7701 70.5359 78.9288 70.79L81.1821 74.3152L83.3402 70.8853C83.4671 70.663 83.5306 70.4407 83.5306 70.2501C83.5306 69.9008 83.3402 69.6149 83.0228 69.4879V69.4561H85.0222V69.4879C84.4827 69.8372 84.1653 70.2819 83.7845 70.8535ZM105.905 78.1898C107.396 78.1898 108.253 77.5228 108.952 76.1572H108.983L108.571 78.5391H101.525V78.5073C102.16 78.2533 102.287 77.7451 102.287 76.8877V71.1393C102.287 70.2819 102.16 69.7737 101.525 69.5197V69.4879H107.523C107.746 69.4879 107.999 69.4879 108.158 69.3926L108.602 71.6157H108.539C107.841 70.3771 107.111 69.8055 105.619 69.8055H103.429V73.7753H105.302C106.381 73.7753 106.698 73.553 107.143 72.3462H107.174V75.3632H107.143C106.698 74.1882 106.349 74.1247 105.302 74.1247H103.429V78.2215H105.905V78.1898ZM132.341 78.5391C132.056 78.3168 131.802 77.7769 131.58 77.1417L131.167 75.9667C130.85 75.0457 130.437 74.2834 129.295 74.2834H127.708V76.8877C127.708 77.7451 127.835 78.2533 128.469 78.5073V78.5391H125.772V78.5073C126.407 78.2533 126.534 77.7451 126.534 76.8877V71.1393C126.534 70.2819 126.407 69.7737 125.772 69.5197V69.4879H129.707C131.611 69.4879 133.135 70.1231 133.135 71.8698C133.135 73.5212 131.58 74.1247 130.088 74.1882C131.421 74.2834 132.087 74.9504 132.405 75.8714L132.786 76.9512C133.135 77.9675 133.547 78.2533 134.341 78.5391V78.5709H132.341V78.5391ZM131.834 71.9333C131.834 70.5042 131.008 69.8372 129.517 69.8372H127.676V73.9659H129.517C130.913 73.9341 131.834 73.4577 131.834 71.9333ZM153.605 69.6467C152.621 69.6467 151.732 70.2183 151.732 71.4569C151.732 72.632 152.716 73.0131 153.859 73.3307C155.35 73.7435 157.064 74.0929 157.064 76.0937C157.064 77.8722 155.509 78.6661 153.922 78.6661C152.875 78.6661 152.145 78.1898 151.637 78.1898C151.256 78.1898 151.066 78.4121 150.812 78.6661L150.653 75.8079H150.685C151.415 77.4276 152.589 78.3486 153.922 78.3486C155.096 78.3486 156.017 77.6499 156.017 76.4113C156.017 75.1092 154.811 74.7916 153.541 74.4422C152.177 74.0611 150.749 73.6165 150.749 71.838C150.749 70.3136 152.081 69.3291 153.637 69.3291C154.684 69.3291 155.382 69.7737 155.795 69.7737C156.239 69.7737 156.398 69.5197 156.588 69.3291L156.652 71.9651H156.62C155.985 70.6947 155.033 69.6467 153.605 69.6467Z" fill="white"></path>
    <path id="Vector_2" d="M19.2006 3.65224C12.536 3.65224 7.26771 6.95514 7.26771 12.1636C7.26771 18.7376 15.7731 19.9127 21.803 21.3418C33.3551 24.1683 39.7024 29.472 39.7024 41.2545C39.7024 53.291 33.0378 60.4049 20.8827 60.4049C14.5988 60.4049 10.4096 58.4994 6.66471 55.7364L3.04675 59.3886H0.761719V43.3188H3.14196C4.88747 50.9091 10.2509 57.7054 20.6605 57.7054C29.1659 57.7054 33.6725 53.1004 33.6725 47.2251C33.6725 39.1902 25.3258 38.2692 19.3593 36.7447C8.63238 34.0453 1.36471 28.9956 1.36471 18.2612C1.36471 6.54228 9.93357 0.952759 19.3593 0.952759C23.9611 0.952759 27.23 2.31838 31.2923 4.85907L34.2755 1.65145H36.6557V17.2767H34.3707C31.3557 7.55856 26.4683 3.65224 19.2006 3.65224ZM114.474 3.93807L93.9084 60.0556H91.909L81.8168 33.5689L71.0899 60.0556H67.5671L46.2084 3.93807H40.1785V1.65145H100.605V3.93807H95.7174L89.8144 20.0397L97.8438 41.6356H98.1611L111.935 3.96983H104.286V1.65145H121.202V3.93807H114.474ZM70.5503 3.93807H59.5378L74.6761 43.4458H74.9935L80.5791 30.3613L70.5503 3.93807ZM93.1785 3.93807H83.7845L88.5132 16.6415L93.1785 3.93807ZM137.737 3.65224C131.072 3.65224 125.804 6.95514 125.804 12.1636C125.804 18.7376 134.309 19.9127 140.339 21.3418C151.891 24.1683 158.238 29.472 158.238 41.2545C158.238 53.291 151.574 60.4049 139.419 60.4049C133.135 60.4049 128.946 58.4994 125.201 55.7364L121.583 59.3886H119.298V43.3188H121.678C123.423 50.9091 128.787 57.7054 139.196 57.7054C147.702 57.7054 152.208 53.1004 152.208 47.2251C152.208 39.1902 143.862 38.2692 137.895 36.7447C127.168 34.077 119.901 29.0274 119.901 18.293C119.901 6.57404 128.47 0.984517 137.895 0.984517C142.497 0.984517 145.766 2.35014 149.828 4.89083L152.811 1.68321H155.192V17.3085H152.907C149.892 7.55855 145.004 3.65224 137.737 3.65224Z" fill="white"></path>
  </g>
</svg>
